<svg height="512pt" viewBox="0 0 512 512" width="512pt" xmlns="http://www.w3.org/2000/svg"><path d="m256 301c24.8125 0 45-20.1875 45-45s-20.1875-45-45-45-45 20.1875-45 45 20.1875 45 45 45zm0-60c8.269531 0 15 6.730469 15 15s-6.730469 15-15 15-15-6.730469-15-15 6.730469-15 15-15zm0 0"/><path d="m31.210938 178.832031c7.402343 23.339844 25.273437 49.847657 52.277343 77.429688-6.421875 6.644531-12.398437 13.308593-17.859375 19.949219-32.964844 40.0625-44.476562 76.175781-32.898437 102.46875-1.121094 3.917968-1.730469 8.046874-1.730469 12.320312 0 24.8125 20.1875 45 45 45 16.460938 0 30.878906-8.890625 38.722656-22.113281 16.753906-.777344 35.3125-3.746094 55.042969-8.699219 2.597656 9.175781 5.445313 17.953125 8.539063 26.257812 19.371093 51.945313 46.960937 80.554688 77.695312 80.554688s58.324219-28.609375 77.695312-80.554688c3.09375-8.296874 5.9375-17.070312 8.535157-26.238281 9.054687 2.265625 17.894531 4.132813 26.457031 5.554688 38.167969 6.351562 88.746094 6.347656 108.148438-27.261719 15.371093-26.625 4.554687-64.726562-30.464844-107.289062-5.460938-6.640626-11.4375-13.304688-17.859375-19.949219 27-27.582031 44.875-54.089844 52.273437-77.433594 18.089844-5.835937 31.214844-22.824219 31.214844-42.828125 0-24.8125-20.1875-45-45-45-10.910156 0-20.921875 3.90625-28.71875 10.386719-24.6875-6.125-58.132812-3.917969-96.011719 5.550781-2.605469-9.21875-5.464843-18.042969-8.574219-26.382812-19.371093-51.945313-46.960937-80.554688-77.695312-80.554688s-58.324219 28.609375-77.695312 80.554688c-3.109376 8.339843-5.964844 17.164062-8.574219 26.382812-37.878907-9.46875-71.324219-11.675781-96.007813-5.550781-7.800781-6.480469-17.8125-10.386719-28.722656-10.386719-24.8125 0-45 20.1875-45 45 0 20.003906 13.125 36.992188 31.210938 42.832031zm435.789062-57.832031c8.269531 0 15 6.730469 15 15s-6.730469 15-15 15-15-6.730469-15-15 6.730469-15 15-15zm-44.4375 7.914062c-.367188 2.308594-.5625 4.675782-.5625 7.085938 0 18.574219 11.3125 34.550781 27.40625 41.414062-7.417969 17.550782-22.207031 37.539063-42.460938 58.105469-14.683593-13.175781-31.007812-26.136719-48.613281-38.589843-1.953125-21.238282-4.957031-41.652344-8.945312-60.808594 29.816406-7.4375 54.996093-9.625 73.175781-7.207032zm-61.867188 107.070313c8.546876 6.632813 16.671876 13.363281 24.320313 20.152344-7.628906 6.679687-15.753906 13.359375-24.324219 19.964843.203125-6.65625.308594-13.359374.308594-20.101562 0-6.714844-.105469-13.390625-.304688-20.015625zm-2.371093 79.160156c17.480469-12.3125 33.734375-25.136719 48.449219-38.222656 5.917968 6.121094 11.414062 12.25 16.429687 18.347656 25.734375 31.277344 36.070313 58.652344 27.652344 73.230469s-37.292969 19.316406-77.246094 12.667969c-7.839844-1.304688-15.949219-3.015625-24.261719-5.097657 4-19.1875 7.015625-39.640624 8.976563-60.925781zm-172.027344 21.515625c5.644531 3.484375 11.382813 6.914063 17.203125 10.273438 5.769531 3.332031 11.554688 6.550781 17.347656 9.667968-9.941406 4.039063-19.753906 7.683594-29.351562 10.890626-2.015625-9.929688-3.75-20.230469-5.199219-30.832032zm119.289063 84.304688c-14.25 38.21875-32.785157 61.035156-49.585938 61.035156s-35.335938-22.816406-49.585938-61.035156c-2.839843-7.621094-5.457031-15.695313-7.847656-24.140625 18.59375-6.09375 37.882813-13.707031 57.402344-22.6875 19.492188 8.976562 38.785156 16.605469 57.457031 22.71875-2.390625 8.4375-5.003906 16.496093-7.839843 24.109375zm14.894531-53.351563c-9.660157-3.21875-19.507813-6.875-29.480469-10.941406 5.839844-3.140625 11.679688-6.378906 17.5-9.738281s11.558594-6.789063 17.203125-10.273438c-1.453125 10.648438-3.199219 20.988282-5.222656 30.953125zm5.222656-192.257812c-5.644531-3.492188-11.378906-6.925781-17.203125-10.289063-5.792969-3.34375-11.597656-6.574218-17.394531-9.691406 10.09375-4.089844 19.917969-7.699219 29.40625-10.839844 2.011719 9.925782 3.746093 20.222656 5.191406 30.820313zm-119.289063-84.320313c14.25-38.21875 32.785157-61.035156 49.585938-61.035156s35.335938 22.816406 49.585938 61.035156c2.851562 7.648438 5.472656 15.75 7.871093 24.226563-18.566406 6.058593-37.863281 13.640625-57.457031 22.632812-19.59375-8.992187-38.890625-16.574219-57.457031-22.632812 2.398437-8.476563 5.019531-16.578125 7.871093-24.226563zm-14.925781 53.5c9.488281 3.140625 19.3125 6.75 29.40625 10.84375-5.796875 3.113282-11.601562 6.34375-17.394531 9.6875-5.824219 3.363282-11.558594 6.796875-17.203125 10.289063 1.445313-10.597657 3.179687-20.894531 5.191406-30.820313zm-9.058593 68.992188c11.53125-7.75 23.585937-15.269532 36.070312-22.480469 12.714844-7.339844 25.242188-13.988281 37.5-19.976563 12.257812 5.988282 24.785156 12.636719 37.5 19.976563 12.484375 7.210937 24.539062 14.734375 36.070312 22.480469.941407 13.867187 1.429688 28.066406 1.429688 42.472656 0 14.410156-.488281 28.609375-1.429688 42.476562-11.523437 7.738282-23.582031 15.265626-36.070312 22.476563-12.441406 7.179687-25.015625 13.851563-37.558594 19.964844-12.457031-6.101563-24.976562-12.769531-37.441406-19.964844-12.488281-7.210937-24.546875-14.742187-36.070312-22.476563-.941407-13.867187-1.429688-28.066406-1.429688-42.476562 0-14.40625.488281-28.605469 1.429688-42.472656zm-106.429688 192.472656c-8.269531 0-15-6.730469-15-15s6.730469-15 15-15 15 6.730469 15 15-6.730469 15-15 15zm44.355469-22.550781c-3.605469-21.230469-22.117188-37.449219-44.355469-37.449219-6.027344 0-11.777344 1.199219-17.035156 3.359375 2.65625-14.664063 12.917968-33.535156 29.832031-54.089844 5.015625-6.097656 10.511719-12.226562 16.429687-18.347656 14.714844 13.082031 30.96875 25.90625 48.449219 38.222656 1.957031 21.253907 4.96875 41.683594 8.960938 60.851563-15.09375 3.8125-29.320313 6.339844-42.28125 7.453125zm30.953125-107.34375c-8.570313-6.609375-16.695313-13.285157-24.324219-19.96875 7.648437-6.785157 15.773437-13.519531 24.320313-20.152344-.199219 6.625-.304688 13.300781-.304688 20.015625 0 6.742188.105469 13.445312.308594 20.105469zm-61.308594-140.105469c0-2.410156-.195312-4.777344-.5625-7.085938 18.179688-2.417968 43.359375-.230468 73.175781 7.207032-3.988281 19.15625-6.992187 39.570312-8.945312 60.808594-17.601563 12.453124-33.929688 25.414062-48.609375 38.589843-20.257813-20.5625-35.046875-40.554687-42.464844-58.105469 16.09375-6.863281 27.40625-22.839843 27.40625-41.414062zm-45-15c8.269531 0 15 6.730469 15 15s-6.730469 15-15 15-15-6.730469-15-15 6.730469-15 15-15zm0 0"/></svg>