<?xml version="1.0" encoding="UTF-8" standalone="no"?>
<!-- Generator: Adobe Illustrator 19.0.0, SVG Export Plug-In . SVG Version: 6.00 Build 0)  -->

<svg
   xmlns:dc="http://purl.org/dc/elements/1.1/"
   xmlns:cc="http://creativecommons.org/ns#"
   xmlns:rdf="http://www.w3.org/1999/02/22-rdf-syntax-ns#"
   xmlns:svg="http://www.w3.org/2000/svg"
   xmlns="http://www.w3.org/2000/svg"
   xmlns:sodipodi="http://sodipodi.sourceforge.net/DTD/sodipodi-0.dtd"
   xmlns:inkscape="http://www.inkscape.org/namespaces/inkscape"
   version="1.1"
   id="Capa_1"
   x="0px"
   y="0px"
   viewBox="0 0 58 58"
   style="enable-background:new 0 0 58 58;"
   xml:space="preserve"
   sodipodi:docname="folder.svg"
   inkscape:version="0.92.4 (5da689c313, 2019-01-14)"
   inkscape:export-filename="D:\Project\Android\Ionic\pdfreader\src\assets\icon\folder.png"
   inkscape:export-xdpi="1694.8966"
   inkscape:export-ydpi="1694.8966"><metadata
   id="metadata55"><rdf:RDF><cc:Work
       rdf:about=""><dc:format>image/svg+xml</dc:format><dc:type
         rdf:resource="http://purl.org/dc/dcmitype/StillImage" /></cc:Work></rdf:RDF></metadata><defs
   id="defs53" /><sodipodi:namedview
   pagecolor="#ffffff"
   bordercolor="#666666"
   borderopacity="1"
   objecttolerance="10"
   gridtolerance="10"
   guidetolerance="10"
   inkscape:pageopacity="0"
   inkscape:pageshadow="2"
   inkscape:window-width="1366"
   inkscape:window-height="715"
   id="namedview51"
   showgrid="false"
   inkscape:zoom="4.0689655"
   inkscape:cx="-7.7415256"
   inkscape:cy="29"
   inkscape:window-x="-32000"
   inkscape:window-y="-32000"
   inkscape:window-maximized="0"
   inkscape:current-layer="Capa_1" />
<path
   style="fill:#329932;fill-opacity:1"
   d="M46.324,58H1.565c-1.03,0-1.779-0.978-1.51-1.973l10.166-27.871C10.405,27.474,11.024,27,11.731,27  H56.49c1.03,0,1.51,0.984,1.51,1.973L47.834,56.844C47.65,57.526,47.031,58,46.324,58z"
   id="path2" />
<path
   style="fill:#F4EFDC;"
   d="M10.221,28.156C10.405,27.474,11.024,27,11.731,27H46V15L31,0H8v34.245L10.221,28.156z"
   id="path4" />
<g
   id="g10"
   style="fill:#008000;fill-opacity:1">
	<path
   style="fill:#008000;fill-opacity:1"
   d="M50.268,18H46v9h6v-7.268C52,18.775,51.224,18,50.268,18z"
   id="path6" />
	<path
   style="fill:#008000;fill-opacity:1"
   d="M8,11H1.732C0.776,11,0,11.775,0,12.732V55.46c0.069,0.002,0.138,0.006,0.205,0.01L8,34.212V11z"
   id="path8" />
</g>
<path
   style="fill:#CEC9AE;"
   d="M25,16H15c-0.552,0-1-0.447-1-1s0.448-1,1-1h10c0.552,0,1,0.447,1,1S25.552,16,25,16z"
   id="path12" />
<path
   style="fill:#CEC9AE;"
   d="M25,9H15c-0.552,0-1-0.447-1-1s0.448-1,1-1h10c0.552,0,1,0.447,1,1S25.552,9,25,9z"
   id="path14" />
<path
   style="fill:#CEC9AE;"
   d="M39,23H15c-0.552,0-1-0.447-1-1s0.448-1,1-1h24c0.552,0,1,0.447,1,1S39.552,23,39,23z"
   id="path16" />
<polygon
   style="fill:#D1BF86;"
   points="31,15 46,15 31,0 "
   id="polygon18" />
<g
   id="g20">
</g>
<g
   id="g22">
</g>
<g
   id="g24">
</g>
<g
   id="g26">
</g>
<g
   id="g28">
</g>
<g
   id="g30">
</g>
<g
   id="g32">
</g>
<g
   id="g34">
</g>
<g
   id="g36">
</g>
<g
   id="g38">
</g>
<g
   id="g40">
</g>
<g
   id="g42">
</g>
<g
   id="g44">
</g>
<g
   id="g46">
</g>
<g
   id="g48">
</g>
<text
   xml:space="preserve"
   style="font-style:normal;font-weight:normal;font-size:12.18095303px;line-height:1.25;font-family:sans-serif;letter-spacing:0px;word-spacing:0px;fill:#ffffff;fill-opacity:1;stroke:none;stroke-width:0.14274554"
   x="19.983099"
   y="34.776783"
   id="text3794-5"
   transform="scale(0.77876945,1.2840771)"><tspan
     sodipodi:role="line"
     id="tspan3792-8"
     x="19.983099"
     y="34.776783"
     style="font-style:normal;font-variant:normal;font-weight:bold;font-stretch:normal;font-size:12.18095303px;font-family:sans-serif;-inkscape-font-specification:'sans-serif Bold';fill:#ffffff;stroke-width:0.14274554">MIPA</tspan></text>
</svg>