<?xml version="1.0" encoding="UTF-8" standalone="no"?>
<!-- Generator: Adobe Illustrator 19.0.0, SVG Export Plug-In . SVG Version: 6.00 Build 0)  -->

<svg
   xmlns:dc="http://purl.org/dc/elements/1.1/"
   xmlns:cc="http://creativecommons.org/ns#"
   xmlns:rdf="http://www.w3.org/1999/02/22-rdf-syntax-ns#"
   xmlns:svg="http://www.w3.org/2000/svg"
   xmlns="http://www.w3.org/2000/svg"
   xmlns:sodipodi="http://sodipodi.sourceforge.net/DTD/sodipodi-0.dtd"
   xmlns:inkscape="http://www.inkscape.org/namespaces/inkscape"
   version="1.1"
   id="Capa_1"
   x="0px"
   y="0px"
   viewBox="0 0 58 58"
   style="enable-background:new 0 0 58 58;"
   xml:space="preserve"
   sodipodi:docname="folder.svg"
   inkscape:version="0.92.4 (5da689c313, 2019-01-14)"
   inkscape:export-filename="D:\Project\Android\Ionic\pdfreader\src\assets\icon\folder.png"
   inkscape:export-xdpi="1694.8966"
   inkscape:export-ydpi="1694.8966"><metadata
   id="metadata55"><rdf:RDF><cc:Work
       rdf:about=""><dc:format>image/svg+xml</dc:format><dc:type
         rdf:resource="http://purl.org/dc/dcmitype/StillImage" /></cc:Work></rdf:RDF></metadata><defs
   id="defs53" /><sodipodi:namedview
   pagecolor="#ffffff"
   bordercolor="#666666"
   borderopacity="1"
   objecttolerance="10"
   gridtolerance="10"
   guidetolerance="10"
   inkscape:pageopacity="0"
   inkscape:pageshadow="2"
   inkscape:window-width="1366"
   inkscape:window-height="715"
   id="namedview51"
   showgrid="false"
   inkscape:zoom="4.0689655"
   inkscape:cx="-14.868644"
   inkscape:cy="30.831583"
   inkscape:window-x="-8"
   inkscape:window-y="-8"
   inkscape:window-maximized="1"
   inkscape:current-layer="Capa_1" />
<ellipse
   style="fill:#ffff00;stroke-width:0.06742839"
   cx="33.177971"
   cy="36.127113"
   id="circle10"
   rx="2.2034252"
   ry="2.2034249" /><path
   style="fill:#329932;fill-opacity:1"
   d="M 46.324,58 H 1.565 c -1.03,0 -1.779,-0.978 -1.51,-1.973 L 10.221,28.156 C 10.405,27.474 11.024,27 11.731,27 h 44.759003 c 1.03,0 1.51,0.984 1.51,1.973 L 47.834,56.844 C 47.65,57.526 47.031,58 46.324,58 Z"
   id="path2"
   inkscape:connector-curvature="0" />
<path
   style="fill:#F4EFDC;"
   d="M10.221,28.156C10.405,27.474,11.024,27,11.731,27H46V15L31,0H8v34.245L10.221,28.156z"
   id="path4" />
<g
   id="g10"
   style="fill:#008000;fill-opacity:1">
	<path
   style="fill:#008000;fill-opacity:1"
   d="M50.268,18H46v9h6v-7.268C52,18.775,51.224,18,50.268,18z"
   id="path6" />
	<path
   style="fill:#008000;fill-opacity:1"
   d="M8,11H1.732C0.776,11,0,11.775,0,12.732V55.46c0.069,0.002,0.138,0.006,0.205,0.01L8,34.212V11z"
   id="path8" />
</g>
<path
   style="fill:#CEC9AE;"
   d="M25,16H15c-0.552,0-1-0.447-1-1s0.448-1,1-1h10c0.552,0,1,0.447,1,1S25.552,16,25,16z"
   id="path12" />
<path
   style="fill:#CEC9AE;"
   d="M25,9H15c-0.552,0-1-0.447-1-1s0.448-1,1-1h10c0.552,0,1,0.447,1,1S25.552,9,25,9z"
   id="path14" />
<path
   style="fill:#CEC9AE;"
   d="M39,23H15c-0.552,0-1-0.447-1-1s0.448-1,1-1h24c0.552,0,1,0.447,1,1S39.552,23,39,23z"
   id="path16" />
<polygon
   style="fill:#D1BF86;"
   points="31,15 46,15 31,0 "
   id="polygon18" />
<g
   id="g20">
</g>
<g
   id="g22">
</g>
<g
   id="g24">
</g>
<g
   id="g26">
</g>
<g
   id="g28">
</g>
<g
   id="g30">
</g>
<g
   id="g32">
</g>
<g
   id="g34">
</g>
<g
   id="g36">
</g>
<g
   id="g38">
</g>
<g
   id="g40">
</g>
<g
   id="g42">
</g>
<g
   id="g44">
</g>
<g
   id="g46">
</g>
<g
   id="g48">
</g>

<path
   style="stroke-width:0.04591106;fill:#ffff00"
   d="m 31.390545,48.187148 v -2.333592 h 0.791139 v -0.682062 h -4.746823 v 0.682062 h 0.791133 v 2.333592 c -0.269037,0.101411 -0.513743,0.233626 -0.745149,0.379995 l -2.419401,-3.823601 v -1.618228 h 0.791139 v -0.682062 h -0.791139 v -1.02309 c 0,-0.188163 -0.17672,-0.341029 -0.395567,-0.341029 H 24.27031 v -1.02309 c 0,-0.188163 -0.17672,-0.341033 -0.395567,-0.341033 h -2.373412 c -0.218852,0 -0.395572,0.15287 -0.395572,0.341033 v 1.02309 h -0.395567 c -0.218852,0 -0.395567,0.152866 -0.395567,0.341029 v 1.02309 h -0.791144 v 0.682062 h 0.791144 v 1.618228 l -4.505581,7.121005 c -0.157779,0.249608 -0.241247,0.532024 -0.241247,0.81644 v 0.334201 c 0,0.940167 0.887309,1.705152 1.977845,1.705152 h 10.284785 c 0.280457,0 0.555676,-0.05395 0.809283,-0.152029 0.369514,0.09841 0.762015,0.152029 1.168562,0.152029 2.181216,0 3.955685,-1.529808 3.955685,-3.410304 0,-1.358287 -0.942935,-2.584032 -2.373412,-3.122888 z m -0.791139,-2.333592 v 0.682057 h -1.582273 v -0.682057 z m -1.84572,2.887099 c 0.157779,-0.04829 0.263447,-0.177005 0.263447,-0.321546 v -1.201434 h 1.582273 v 1.201434 c 0,0.144541 0.105668,0.273258 0.263452,0.321546 1.006328,0.307392 1.740849,1.028257 2.000838,1.890658 -0.30113,0.009 -0.583518,0.111565 -0.797914,0.296398 l -0.327581,0.282416 c -0.07397,0.06344 -0.175535,0.09991 -0.279665,0.09991 h -0.135977 c -0.104084,0 -0.206094,-0.03647 -0.27967,-0.09991 l -0.327581,-0.282416 c -0.223839,-0.19333 -0.522102,-0.299732 -0.83905,-0.299732 h -0.135977 c -0.316948,0 -0.61516,0.106402 -0.83905,0.299732 l -0.327581,0.282416 c -0.07397,0.06344 -0.175529,0.09991 -0.279665,0.09991 h -0.135977 c -0.104084,0 -0.206089,-0.03647 -0.279664,-0.09991 l -0.327586,-0.282416 c -0.213999,-0.184833 -0.496386,-0.287077 -0.797909,-0.296398 0.259988,-0.862401 0.994509,-1.583596 2.000837,-1.890658 z m -6.856793,-8.343584 h 1.582278 v 0.682062 h -1.582278 z m -0.791134,1.364119 h 3.164551 v 0.682062 h -3.164551 z m -0.04823,3.23263 c 0.03163,-0.05012 0.04823,-0.106403 0.04823,-0.163354 v -1.705152 h 3.164551 v 1.705152 c 0,0.05695 0.01661,0.113234 0.04834,0.163354 l 1.410151,2.228687 c -0.295488,0.0118 -0.572291,0.113234 -0.783224,0.294904 l -0.327581,0.282416 c -0.07397,0.06344 -0.175534,0.09991 -0.279669,0.09991 h -0.135978 c -0.104084,0 -0.206089,-0.03647 -0.279664,-0.09991 l -0.327581,-0.282416 c -0.223844,-0.19333 -0.522102,-0.299736 -0.83905,-0.299736 h -0.135977 c -0.316949,0 -0.61516,0.106406 -0.839051,0.299736 l -0.327585,0.282416 c -0.07398,0.06344 -0.175535,0.09991 -0.27967,0.09991 h -0.135972 c -0.10409,0 -0.206094,-0.03647 -0.27967,-0.09991 l -0.327581,-0.282416 c -0.210345,-0.18167 -0.487685,-0.283081 -0.783224,-0.294904 z m -3.511859,9.044458 c -0.654175,0 -1.186711,-0.45909 -1.186711,-1.02309 v -0.334201 c 0,-0.170512 0.05023,-0.340363 0.144878,-0.490062 l 2.71509,-4.291189 h 0.372574 c 0.104135,0 0.206089,0.03647 0.279665,0.09991 l 0.327581,0.282416 c 0.22389,0.19333 0.522102,0.299732 0.839055,0.299732 h 0.135972 c 0.316953,0 0.615211,-0.106402 0.83905,-0.299732 l 0.327586,-0.282416 c 0.07397,-0.06345 0.17558,-0.09991 0.279665,-0.09991 h 0.135977 c 0.104135,0 0.206089,0.03647 0.279664,0.09991 l 0.327581,0.282416 c 0.22389,0.19333 0.522102,0.299732 0.83905,0.299732 h 0.135978 c 0.316953,0 0.615211,-0.106402 0.83905,-0.299732 l 0.32758,-0.282416 c 0.07398,-0.06345 0.175586,-0.09991 0.27967,-0.09991 H 26.1572 l 0.71603,1.131497 c -0.640477,0.613287 -1.020619,1.418741 -1.020619,2.278803 0,1.116176 0.628113,2.105802 1.592512,2.728242 z m 12.262631,0 c -1.744906,0 -3.164551,-1.223908 -3.164551,-2.728242 h 0.06799 c 0.104135,0 0.206094,0.03647 0.27967,0.09991 l 0.327581,0.282416 c 0.22389,0.19333 0.522102,0.299732 0.83905,0.299732 h 0.135977 c 0.316948,0 0.615206,-0.106402 0.83905,-0.299732 l 0.327581,-0.282416 c 0.07397,-0.06344 0.17558,-0.09991 0.279665,-0.09991 h 0.135977 c 0.104135,0 0.206094,0.03647 0.27967,0.09991 l 0.32758,0.282416 c 0.22389,0.19333 0.522097,0.299732 0.83905,0.299732 h 0.135978 c 0.316948,0 0.615206,-0.106402 0.83905,-0.299732 L 32.6252,51.409946 c 0.07397,-0.06344 0.17558,-0.09991 0.279664,-0.09991 h 0.06799 c 0,1.504334 -1.419649,2.728242 -3.16455,2.728242 z m 0,0"
   id="path3812"
   inkscape:connector-curvature="0" /><path
   style="stroke-width:0.04591106;fill:#ffff00"
   d="m 18.336776,51.310036 c -0.654171,0 -1.186701,0.459095 -1.186701,1.02309 0,0.564004 0.53253,1.023091 1.186701,1.023091 0.654221,0 1.186705,-0.459087 1.186705,-1.023091 0,-0.563995 -0.532484,-1.02309 -1.186705,-1.02309 z m 0,1.364123 c -0.218255,0 -0.395567,-0.153196 -0.395567,-0.341033 0,-0.187828 0.177312,-0.341028 0.395567,-0.341028 0.218259,0 0.395572,0.1532 0.395572,0.341028 0,0.187837 -0.177313,0.341033 -0.395572,0.341033 z m 0,0"
   id="path3814"
   inkscape:connector-curvature="0" /><path
   style="stroke-width:0.04591106;fill:#ffff00"
   d="m 21.501331,50.627979 c -0.654175,0 -1.186706,0.459095 -1.186706,1.02309 0,0.564 0.532531,1.02309 1.186706,1.02309 0.654217,0 1.186701,-0.45909 1.186701,-1.02309 0,-0.563995 -0.532484,-1.02309 -1.186701,-1.02309 z m 0,1.364119 c -0.218259,0 -0.395572,-0.153192 -0.395572,-0.341029 0,-0.187832 0.177313,-0.341033 0.395572,-0.341033 0.218255,0 0.395562,0.153201 0.395562,0.341033 0,0.187837 -0.177307,0.341029 -0.395562,0.341029 z m 0,0"
   id="path3816"
   inkscape:connector-curvature="0" /><path
   style="stroke-width:0.04591106;fill:#ffff00"
   d="m 24.27031,49.263855 c -0.654176,0 -1.186711,0.459096 -1.186711,1.023091 0,0.563999 0.532535,1.02309 1.186711,1.02309 0.654221,0 1.186706,-0.459091 1.186706,-1.02309 0,-0.563995 -0.532485,-1.023091 -1.186706,-1.023091 z m 0,1.364124 c -0.218254,0 -0.395567,-0.153196 -0.395567,-0.341033 0,-0.187828 0.177313,-0.341029 0.395567,-0.341029 0.218254,0 0.395567,0.153201 0.395567,0.341029 0,0.187837 -0.177313,0.341033 -0.395567,0.341033 z m 0,0"
   id="path3818"
   inkscape:connector-curvature="0" /><path
   style="stroke-width:0.04591106;fill:#ffff00"
   d="m 24.665877,52.674159 h 0.791139 v 0.682058 h -0.791139 z m 0,0"
   id="path3820"
   inkscape:connector-curvature="0" /><path
   style="stroke-width:0.04591106;fill:#ffff00"
   d="m 23.874743,51.992098 h 0.791134 v 0.682061 h -0.791134 z m 0,0"
   id="path3822"
   inkscape:connector-curvature="0" /><path
   style="stroke-width:0.04591106;fill:#ffff00"
   d="m 23.083599,52.674159 h 0.791144 v 0.682058 h -0.791144 z m 0,0"
   id="path3824"
   inkscape:connector-curvature="0" /><path
   style="stroke-width:0.04591106;fill:#ffff00"
   d="m 19.919053,49.604888 h 0.791139 v 0.682058 h -0.791139 z m 0,0"
   id="path3826"
   inkscape:connector-curvature="0" /><path
   style="stroke-width:0.04591106;fill:#ffff00"
   d="m 39.697495,38.350891 h -5.537971 c -0.218842,0 -0.395567,0.152865 -0.395567,0.341028 v 1.364124 c 0,0.188167 0.176725,0.341028 0.395567,0.341028 h 0.395572 v 12.277088 c 0,1.128497 1.064472,2.046181 2.373411,2.046181 1.30899,0 2.373418,-0.917684 2.373418,-2.046181 V 40.397071 h 0.39557 c 0.21884,0 0.39556,-0.152861 0.39556,-0.341028 v -1.364124 c 0,-0.188163 -0.17672,-0.341028 -0.39556,-0.341028 z m -2.768988,15.687387 c -0.872624,0 -1.582278,-0.611784 -1.582278,-1.364119 v -7.502665 h 3.164551 v 7.502665 c 0,0.752335 -0.709598,1.364119 -1.582273,1.364119 z m 1.582273,-9.548845 h -3.164551 v -4.092362 h 3.164551 z m 0.791145,-4.774423 h -4.746829 v -0.682058 h 4.746829 z m 0,0"
   id="path3828"
   inkscape:connector-curvature="0" /><path
   style="stroke-width:0.04591106;fill:#ffff00"
   d="m 36.137373,52.333126 h 0.791134 v 0.682062 h -0.791134 z m 0,0"
   id="path3830"
   inkscape:connector-curvature="0" /><path
   style="stroke-width:0.04591106;fill:#ffff00"
   d="m 36.928507,50.969007 h 0.791139 v 0.682062 h -0.791139 z m 0,0"
   id="path3832"
   inkscape:connector-curvature="0" /><path
   style="stroke-width:0.04591106;fill:#ffff00"
   d="m 36.137373,49.604888 h 0.791134 v 0.682058 h -0.791134 z m 0,0"
   id="path3834"
   inkscape:connector-curvature="0" /><path
   style="stroke-width:0.04591106;fill:#ffff00"
   d="m 36.928507,48.240765 h 0.791139 v 0.682062 h -0.791139 z m 0,0"
   id="path3836"
   inkscape:connector-curvature="0" /><path
   style="stroke-width:0.04591106;fill:#ffff00"
   d="m 36.137373,46.876646 h 0.791134 v 0.682057 h -0.791134 z m 0,0"
   id="path3838"
   inkscape:connector-curvature="0" /><path
   style="stroke-width:0.04591106;fill:#ffff00"
   d="m 21.523476,36.691919 c 0,-0.187832 0.177318,-0.341033 0.395572,-0.341033 h 1.186706 v 2.046185 h 0.791139 v -2.046185 h 3.955684 v 7.502666 h 0.791139 v -7.502666 h 1.186706 c 0.218254,0 0.395567,0.153201 0.395567,0.341033 v 7.161633 h 0.791139 v -7.161633 c 0,-0.563995 -0.532484,-1.02309 -1.186706,-1.02309 H 28.643716 V 35.3278 c 0,-0.187832 0.177313,-0.341033 0.395567,-0.341033 h 4.746824 c 0.218259,0 0.395572,0.153201 0.395572,0.341033 v 1.705148 h 0.791133 V 35.3278 c 0,-0.563999 -0.532479,-1.02309 -1.186705,-1.02309 h -4.746824 c -0.65417,0 -1.186706,0.459091 -1.186706,1.02309 v 0.341029 h -3.955684 v -1.705152 c 0,-0.187828 0.177312,-0.341029 0.395567,-0.341029 h 13.449336 c 0.218254,0 0.395567,0.153201 0.395567,0.341029 v 3.069271 h 0.791145 v -3.069271 c 0,-0.563995 -0.53249,-1.02309 -1.186712,-1.02309 H 24.29246 c -0.654171,0 -1.186706,0.459095 -1.186706,1.02309 v 1.705152 h -1.186706 c -0.65417,0 -1.186706,0.459095 -1.186706,1.02309 v 1.705152 h 0.791134 z m 0,0"
   id="path3840"
   inkscape:connector-curvature="0" /><path
   style="stroke-width:0.04591106;fill:#ffff00"
   d="m 17.941209,38.691919 c 0,0.564 0.532535,1.023091 1.186706,1.023091 0.654221,0 1.18671,-0.459091 1.18671,-1.023091 0,-0.563995 -0.532489,-1.02309 -1.18671,-1.02309 -0.654171,0 -1.186706,0.459095 -1.186706,1.02309 z m 1.582272,0 c 0,0.187837 -0.177312,0.341033 -0.395566,0.341033 -0.218255,0 -0.395567,-0.153196 -0.395567,-0.341033 0,-0.187828 0.177312,-0.341028 0.395567,-0.341028 0.218254,0 0.395566,0.1532 0.395566,0.341028 z m 0,0"
   id="path3842"
   inkscape:connector-curvature="0" /><path
   style="stroke-width:0.04591106;fill:#ffff00"
   d="m 17.545642,36.986767 c 1.090531,0 1.977839,-0.764985 1.977839,-1.705147 0,-0.940163 -0.887308,-1.705152 -1.977839,-1.705152 -1.090536,0 -1.977845,0.764989 -1.977845,1.705152 0,0.940162 0.887309,1.705147 1.977845,1.705147 z m 0,-2.728238 c 0.654221,0 1.186706,0.459096 1.186706,1.023091 0,0.563999 -0.532485,1.02309 -1.186706,1.02309 -0.654176,0 -1.186711,-0.459091 -1.186711,-1.02309 0,-0.563995 0.532535,-1.023091 1.186711,-1.023091 z m 0,0"
   id="path3844"
   inkscape:connector-curvature="0" /><path
   style="stroke-width:0.04591106;fill:#ffff00"
   d="m 17.150075,43.125314 c 0.87267,0 1.582273,-0.611785 1.582273,-1.364124 0,-0.75233 -0.709603,-1.364119 -1.582273,-1.364119 -0.872624,0 -1.582278,0.611789 -1.582278,1.364119 0,0.752339 0.709654,1.364124 1.582278,1.364124 z m 0,-2.046181 c 0.436309,0 0.791134,0.305895 0.791134,0.682057 0,0.376172 -0.354825,0.682062 -0.791134,0.682062 -0.436315,0 -0.791144,-0.30589 -0.791144,-0.682062 0,-0.376162 0.354829,-0.682057 0.791144,-0.682057 z m 0,0"
   id="path3846"
   inkscape:connector-curvature="0" /></svg>