<?xml version="1.0" encoding="UTF-8" standalone="no"?>
<!-- Generator: Adobe Illustrator 19.0.0, SVG Export Plug-In . SVG Version: 6.00 Build 0)  -->

<svg
   xmlns:dc="http://purl.org/dc/elements/1.1/"
   xmlns:cc="http://creativecommons.org/ns#"
   xmlns:rdf="http://www.w3.org/1999/02/22-rdf-syntax-ns#"
   xmlns:svg="http://www.w3.org/2000/svg"
   xmlns="http://www.w3.org/2000/svg"
   xmlns:sodipodi="http://sodipodi.sourceforge.net/DTD/sodipodi-0.dtd"
   xmlns:inkscape="http://www.inkscape.org/namespaces/inkscape"
   version="1.1"
   id="Layer_1"
   x="0px"
   y="0px"
   viewBox="0 0 512 512"
   style="enable-background:new 0 0 512 512;"
   xml:space="preserve"
   sodipodi:docname="mtk.svg"
   inkscape:export-filename="C:\Users\ferdi\Downloads\IPA.png"
   inkscape:export-xdpi="100"
   inkscape:export-ydpi="100"
   inkscape:version="0.92.4 (5da689c313, 2019-01-14)"><metadata
   id="metadata55"><rdf:RDF><cc:Work
       rdf:about=""><dc:format>image/svg+xml</dc:format><dc:type
         rdf:resource="http://purl.org/dc/dcmitype/StillImage" /><dc:title /></cc:Work></rdf:RDF></metadata><defs
   id="defs53" /><sodipodi:namedview
   pagecolor="#ffffff"
   bordercolor="#666666"
   borderopacity="1"
   objecttolerance="10"
   gridtolerance="10"
   guidetolerance="10"
   inkscape:pageopacity="0"
   inkscape:pageshadow="2"
   inkscape:window-width="1366"
   inkscape:window-height="715"
   id="namedview51"
   showgrid="false"
   inkscape:zoom="0.4609375"
   inkscape:cx="-96.542373"
   inkscape:cy="256"
   inkscape:window-x="-8"
   inkscape:window-y="-8"
   inkscape:window-maximized="1"
   inkscape:current-layer="Layer_1" />
<path
   style="fill:#e2e5ff;fill-opacity:1"
   d="M128,0c-17.6,0-32,14.4-32,32v448c0,17.6,14.4,32,32,32h320c17.6,0,32-14.4,32-32V128L352,0H128z"
   id="path2" />
<path
   style="fill:#b0b7ff;fill-opacity:1"
   d="M384,128h96L352,0v96C352,113.6,366.4,128,384,128z"
   id="path4" />
<polygon
   style="fill:#cad1f7;fill-opacity:1"
   points="480,224 384,128 480,128 "
   id="polygon6" />
<path
   style="fill:#f156b5;fill-opacity:1"
   d="M416,416c0,8.8-7.2,16-16,16H48c-8.8,0-16-7.2-16-16V256c0-8.8,7.2-16,16-16h352c8.8,0,16,7.2,16,16  V416z"
   id="path8" />

<path
   style="fill:#CAD1D8;"
   d="M400,432H96v16h304c8.8,0,16-7.2,16-16v-16C416,424.8,408.8,432,400,432z"
   id="path18" />
<g
   id="g20">
</g>
<g
   id="g22">
</g>
<g
   id="g24">
</g>
<g
   id="g26">
</g>
<g
   id="g28">
</g>
<g
   id="g30">
</g>
<g
   id="g32">
</g>
<g
   id="g34">
</g>
<g
   id="g36">
</g>
<g
   id="g38">
</g>
<g
   id="g40">
</g>
<g
   id="g42">
</g>
<g
   id="g44">
</g>
<g
   id="g46">
</g>
<g
   id="g48">
</g>
<g
   aria-label="Matematika"
   transform="translate(0,30)"
   style="font-style:normal;font-weight:normal;font-size:53.33333206px;line-height:1.25;font-family:sans-serif;letter-spacing:0px;word-spacing:0px;fill:#000000;fill-opacity:1;stroke:none"
   id="flowRoot4565"><path
     d="m 65.152344,287.7207 h 11.484375 l 7.96875,18.72656 8.015625,-18.72656 h 11.460936 v 34.99219 h -8.531249 v -25.59375 l -8.0625,18.86719 h -5.71875 l -8.0625,-18.86719 v 25.59375 h -8.554687 z"
     style="font-style:normal;font-variant:normal;font-weight:bold;font-stretch:normal;font-size:48px;font-family:sans-serif;-inkscape-font-specification:'sans-serif Bold';fill:#ffffff"
     id="path835" /><path
     d="m 124.35547,310.90039 q -2.625,0 -3.96094,0.89062 -1.3125,0.89063 -1.3125,2.625 0,1.59375 1.05469,2.50782 1.07812,0.89062 2.97656,0.89062 2.36719,0 3.98438,-1.6875 1.61718,-1.71094 1.61718,-4.26562 v -0.96094 z m 12.82031,-3.16406 v 14.97656 h -8.46094 v -3.89063 q -1.6875,2.39063 -3.79687,3.49219 -2.10938,1.07813 -5.13281,1.07813 -4.07813,0 -6.63282,-2.36719 -2.53125,-2.39063 -2.53125,-6.1875 0,-4.61719 3.16407,-6.77344 3.1875,-2.15625 9.98437,-2.15625 h 4.94531 v -0.65625 q 0,-1.99219 -1.57031,-2.90625 -1.57031,-0.9375 -4.89844,-0.9375 -2.69531,0 -5.01562,0.53906 -2.32031,0.53907 -4.3125,1.61719 v -6.39844 q 2.69531,-0.65625 5.41406,-0.98437 2.71875,-0.35156 5.4375,-0.35156 7.10156,0 10.24219,2.8125 3.16406,2.78906 3.16406,9.09375 z"
     style="font-style:normal;font-variant:normal;font-weight:bold;font-stretch:normal;font-size:48px;font-family:sans-serif;-inkscape-font-specification:'sans-serif Bold';fill:#ffffff"
     id="path837" /><path
     d="m 154.19141,289.00976 v 7.45313 h 8.64843 v 6 h -8.64843 v 11.13281 q 0,1.82813 0.72656,2.48438 0.72656,0.63281 2.88281,0.63281 h 4.3125 v 6 h -7.19531 q -4.96875,0 -7.05469,-2.0625 -2.0625,-2.08594 -2.0625,-7.05469 v -11.13281 h -4.17187 v -6 h 4.17187 v -7.45313 z"
     style="font-style:normal;font-variant:normal;font-weight:bold;font-stretch:normal;font-size:48px;font-family:sans-serif;-inkscape-font-specification:'sans-serif Bold';fill:#ffffff"
     id="path839" /><path
     d="m 194.19922,309.51758 v 2.39062 h -19.61719 q 0.30469,2.95313 2.13281,4.42969 1.82813,1.47656 5.10938,1.47656 2.64844,0 5.41406,-0.77344 2.78906,-0.79687 5.71875,-2.39062 v 6.46875 q -2.97656,1.125 -5.95312,1.6875 -2.97657,0.58594 -5.95313,0.58594 -7.125,0 -11.08594,-3.60938 -3.9375,-3.63281 -3.9375,-10.17187 0,-6.42188 3.86719,-10.10157 3.89063,-3.67968 10.6875,-3.67968 6.1875,0 9.89063,3.72656 3.72656,3.72656 3.72656,9.96094 z m -8.625,-2.78907 q 0,-2.39062 -1.40625,-3.84375 -1.38281,-1.47656 -3.63281,-1.47656 -2.4375,0 -3.96094,1.38281 -1.52344,1.35938 -1.89844,3.9375 z"
     style="font-style:normal;font-variant:normal;font-weight:bold;font-stretch:normal;font-size:48px;font-family:sans-serif;-inkscape-font-specification:'sans-serif Bold';fill:#ffffff"
     id="path841" /><path
     d="m 224.85547,300.82226 q 1.59375,-2.4375 3.77344,-3.70312 2.20312,-1.28906 4.82812,-1.28906 4.52344,0 6.89063,2.78906 2.36718,2.78906 2.36718,8.10937 v 15.98438 h -8.4375 v -13.6875 q 0.0234,-0.30469 0.0234,-0.63281 0.0234,-0.32813 0.0234,-0.9375 0,-2.78907 -0.82031,-4.03125 -0.82032,-1.26563 -2.64844,-1.26563 -2.39063,0 -3.70313,1.96875 -1.28906,1.96875 -1.33593,5.69531 v 12.89063 h -8.4375 v -13.6875 q 0,-4.35938 -0.75,-5.60156 -0.75,-1.26563 -2.67188,-1.26563 -2.41406,0 -3.72656,1.99219 -1.3125,1.96875 -1.3125,5.64844 v 12.91406 h -8.4375 v -26.25 h 8.4375 v 3.84375 q 1.54687,-2.22656 3.53906,-3.35156 2.01563,-1.125 4.42969,-1.125 2.71875,0 4.80469,1.3125 2.08593,1.3125 3.16406,3.67968 z"
     style="font-style:normal;font-variant:normal;font-weight:bold;font-stretch:normal;font-size:48px;font-family:sans-serif;-inkscape-font-specification:'sans-serif Bold';fill:#ffffff"
     id="path843" /><path
     d="m 262.35547,310.90039 q -2.625,0 -3.96094,0.89062 -1.3125,0.89063 -1.3125,2.625 0,1.59375 1.05469,2.50782 1.07812,0.89062 2.97656,0.89062 2.36719,0 3.98438,-1.6875 1.61718,-1.71094 1.61718,-4.26562 v -0.96094 z m 12.82031,-3.16406 v 14.97656 h -8.46094 v -3.89063 q -1.6875,2.39063 -3.79687,3.49219 -2.10938,1.07813 -5.13281,1.07813 -4.07813,0 -6.63282,-2.36719 -2.53125,-2.39063 -2.53125,-6.1875 0,-4.61719 3.16407,-6.77344 3.1875,-2.15625 9.98437,-2.15625 h 4.94531 v -0.65625 q 0,-1.99219 -1.57031,-2.90625 -1.57031,-0.9375 -4.89844,-0.9375 -2.69531,0 -5.01562,0.53906 -2.32031,0.53907 -4.3125,1.61719 v -6.39844 q 2.69531,-0.65625 5.41406,-0.98437 2.71875,-0.35156 5.4375,-0.35156 7.10156,0 10.24219,2.8125 3.16406,2.78906 3.16406,9.09375 z"
     style="font-style:normal;font-variant:normal;font-weight:bold;font-stretch:normal;font-size:48px;font-family:sans-serif;-inkscape-font-specification:'sans-serif Bold';fill:#ffffff"
     id="path845" /><path
     d="m 292.19141,289.00976 v 7.45313 h 8.64843 v 6 h -8.64843 v 11.13281 q 0,1.82813 0.72656,2.48438 0.72656,0.63281 2.88281,0.63281 h 4.3125 v 6 h -7.19531 q -4.96875,0 -7.05469,-2.0625 -2.0625,-2.08594 -2.0625,-7.05469 v -11.13281 h -4.17187 v -6 h 4.17187 v -7.45313 z"
     style="font-style:normal;font-variant:normal;font-weight:bold;font-stretch:normal;font-size:48px;font-family:sans-serif;-inkscape-font-specification:'sans-serif Bold';fill:#ffffff"
     id="path847" /><path
     d="m 305.99609,296.46289 h 8.39063 v 26.25 h -8.39063 z m 0,-10.21875 h 8.39063 v 6.84375 h -8.39063 z"
     style="font-style:normal;font-variant:normal;font-weight:bold;font-stretch:normal;font-size:48px;font-family:sans-serif;-inkscape-font-specification:'sans-serif Bold';fill:#ffffff"
     id="path849" /><path
     d="m 322.49609,286.24414 h 8.39063 v 19.85156 l 9.65625,-9.63281 h 9.75 l -12.82031,12.04687 13.82812,14.20313 h -10.17187 l -10.24219,-10.94531 v 10.94531 h -8.39063 z"
     style="font-style:normal;font-variant:normal;font-weight:bold;font-stretch:normal;font-size:48px;font-family:sans-serif;-inkscape-font-specification:'sans-serif Bold';fill:#ffffff"
     id="path851" /><path
     d="m 366.23047,310.90039 q -2.625,0 -3.96094,0.89062 -1.3125,0.89063 -1.3125,2.625 0,1.59375 1.05469,2.50782 1.07812,0.89062 2.97656,0.89062 2.36719,0 3.98438,-1.6875 1.61718,-1.71094 1.61718,-4.26562 v -0.96094 z m 12.82031,-3.16406 v 14.97656 h -8.46094 v -3.89063 q -1.6875,2.39063 -3.79687,3.49219 -2.10938,1.07813 -5.13281,1.07813 -4.07813,0 -6.63282,-2.36719 -2.53125,-2.39063 -2.53125,-6.1875 0,-4.61719 3.16407,-6.77344 3.1875,-2.15625 9.98437,-2.15625 h 4.94531 v -0.65625 q 0,-1.99219 -1.57031,-2.90625 -1.57031,-0.9375 -4.89844,-0.9375 -2.69531,0 -5.01562,0.53906 -2.32031,0.53907 -4.3125,1.61719 v -6.39844 q 2.69531,-0.65625 5.41406,-0.98437 2.71875,-0.35156 5.4375,-0.35156 7.10156,0 10.24219,2.8125 3.16406,2.78906 3.16406,9.09375 z"
     style="font-style:normal;font-variant:normal;font-weight:bold;font-stretch:normal;font-size:48px;font-family:sans-serif;-inkscape-font-specification:'sans-serif Bold';fill:#ffffff"
     id="path853" /></g></svg>